<svg width="24" height="24" viewBox="0 0 24 24" fill="none" xmlns="http://www.w3.org/2000/svg">
<g clip-path="url(#clip0)">
<path d="M5.31891 14.5041L4.4835 17.6228L1.43011 17.6874C0.517594 15.9949 0 14.0584 0 12.0006C0 10.0107 0.483938 8.13423 1.34175 6.48193H1.34241L4.06078 6.98031L5.25159 9.68237C5.00236 10.409 4.86652 11.189 4.86652 12.0006C4.86661 12.8815 5.02617 13.7255 5.31891 14.5041Z" fill="#FBBB00"/>
<path d="M23.7902 9.75806C23.928 10.484 23.9999 11.2336 23.9999 11.9998C23.9999 12.8589 23.9095 13.697 23.7374 14.5053C23.1533 17.2561 21.6269 19.6581 19.5124 21.3578L19.5118 21.3572L16.0878 21.1825L15.6032 18.1574C17.0063 17.3346 18.1028 16.0469 18.6804 14.5053H12.2637V9.75806H18.774H23.7902Z" fill="#518EF8"/>
<path d="M19.512 21.358L19.5127 21.3586C17.4563 23.0116 14.8439 24.0006 12.0002 24.0006C7.4303 24.0006 3.45713 21.4463 1.4303 17.6874L5.31909 14.5042C6.33249 17.2087 8.9415 19.134 12.0002 19.134C13.3149 19.134 14.5466 18.7786 15.6035 18.1582L19.512 21.358Z" fill="#28B446"/>
<path d="M19.6603 2.76262L15.7729 5.94525C14.679 5.26153 13.386 4.86656 12.0008 4.86656C8.87286 4.86656 6.21505 6.88017 5.25242 9.68175L1.34319 6.48131H1.34253C3.33969 2.63077 7.36297 0 12.0008 0C14.9124 0 17.5821 1.03716 19.6603 2.76262Z" fill="#F14336"/>
</g>
<defs>
<clipPath id="clip0">
<rect width="24" height="24" fill="white"/>
</clipPath>
</defs>
</svg>
