<svg width="29" height="29" viewBox="0 0 29 29" fill="none" xmlns="http://www.w3.org/2000/svg">
<path d="M15.3929 18.0716H4C2.89543 18.0716 2 17.1761 2 16.0716V12.9287C2 11.8241 2.89543 10.9287 4 10.9287H8.25" stroke="white" stroke-width="3"/>
<path d="M13.6071 10.9284H25C26.1046 10.9284 27 11.8239 27 12.9284V16.0713C27 17.1759 26.1046 18.0713 25 18.0713H20.75" stroke="white" stroke-width="3"/>
<path d="M10.9254 15.3929L10.9254 4C10.9254 2.89543 11.8208 2 12.9254 2L16.0682 2C17.1728 2 18.0682 2.89543 18.0682 4L18.0682 8.25" stroke="white" stroke-width="3"/>
<path d="M18.0746 13.6071L18.0746 25C18.0746 26.1046 17.1792 27 16.0746 27L12.9318 27C11.8272 27 10.9318 26.1046 10.9318 25L10.9318 20.75" stroke="white" stroke-width="3"/>
</svg>
