<svg width="72" height="85" viewBox="0 0 72 85" fill="none" xmlns="http://www.w3.org/2000/svg">
<path fill-rule="evenodd" clip-rule="evenodd" d="M45.4434 0.763728C43.3352 -0.0248379 41.0483 -0.207184 38.8417 0.237351C36.6352 0.681886 34.5972 1.73553 32.9588 3.2789C31.3204 4.82228 30.147 6.79368 29.5715 8.96976C29.3594 9.77172 29.8376 10.5938 30.6396 10.8058C31.4415 11.0179 32.2636 10.5397 32.4756 9.73776C32.9077 8.10414 33.7886 6.62416 35.0186 5.46552C36.2486 4.30688 37.7785 3.51589 39.435 3.18217C41.0915 2.84845 42.8083 2.98534 44.391 3.57733C45.9737 4.16932 47.3589 5.19275 48.3898 6.53166C49.4207 7.87056 50.0559 9.47143 50.2236 11.1529C50.3913 12.8343 50.0847 14.5291 49.3386 16.0452C48.5925 17.5613 47.4366 18.8382 46.002 19.7311C44.5761 20.6186 42.9315 21.0915 41.2524 21.0972C41.2422 21.097 41.232 21.0969 41.2218 21.0969H4.52103C3.69151 21.0969 3.01904 21.7694 3.01904 22.5989C3.01904 23.4284 3.69151 24.1009 4.52103 24.1009H41.1885C41.1995 24.1011 41.2106 24.1012 41.2216 24.1012C43.4725 24.1012 45.6784 23.4708 47.5894 22.2814C49.5003 21.092 51.04 19.3912 52.0339 17.3716C53.0278 15.3521 53.4361 13.0945 53.2128 10.8548C52.9894 8.61499 52.1432 6.48255 50.77 4.69906C49.3969 2.91556 47.5516 1.55229 45.4434 0.763728Z" fill="#393939"/>
<path fill-rule="evenodd" clip-rule="evenodd" d="M60.237 20.7605C61.6601 20.4738 63.135 20.5914 64.4946 21.1C65.8543 21.6085 67.0443 22.4877 67.9299 23.638C68.8155 24.7882 69.3612 26.1635 69.5053 27.6079C69.6493 29.0524 69.3859 30.5084 68.745 31.8108C68.104 33.1133 67.111 34.2102 65.8786 34.9773C64.7281 35.6934 63.4119 36.0953 62.061 36.1456C62.0182 36.1492 61.9749 36.1511 61.9312 36.1511L55.0172 36.1511C55.3894 36.6302 55.706 37.1535 55.9588 37.7114C56.5611 39.0407 56.7769 40.5126 56.5817 41.9588C56.3864 43.405 55.7879 44.7669 54.8547 45.8889C53.9215 47.0108 52.6913 47.8473 51.3048 48.3026C49.9184 48.758 48.4318 48.8138 47.0151 48.4636C45.5984 48.1135 44.3089 47.3716 43.2943 46.3228C42.2796 45.274 41.5807 43.9607 41.2775 42.5332C41.1052 41.7218 41.6233 40.9243 42.4348 40.752C43.2462 40.5797 44.0437 41.0978 44.216 41.9093C44.402 42.785 44.8307 43.5906 45.4532 44.234C46.0757 44.8774 46.8667 45.3326 47.7358 45.5474C48.6049 45.7622 49.5169 45.728 50.3675 45.4486C51.218 45.1693 51.9727 44.6561 52.5452 43.9678C53.1177 43.2796 53.4849 42.444 53.6047 41.5568C53.7245 40.6696 53.5921 39.7667 53.2226 38.9512C52.8531 38.1358 52.2615 37.4408 51.5155 36.9459C50.7695 36.451 49.8992 36.1761 49.0043 36.1527C48.9905 36.1524 48.9767 36.1518 48.9629 36.1511L4.50199 36.1511C3.67246 36.1511 3 35.4786 3 34.6491C3 33.8196 3.67246 33.1471 4.50199 33.1471L61.75 33.1471C61.7573 33.147 61.7646 33.147 61.7719 33.147C62.6624 33.147 63.5352 32.8975 64.2912 32.427C65.0473 31.9564 65.6565 31.2835 66.0497 30.4844C66.4429 29.6854 66.6045 28.7922 66.5161 27.906C66.4278 27.0199 66.093 26.1762 65.5497 25.4706C65.0064 24.7649 64.2763 24.2256 63.4422 23.9136C62.6081 23.6016 61.7033 23.5294 60.8303 23.7053C59.9573 23.8812 59.151 24.2981 58.5027 24.9087C57.8545 25.5193 57.3902 26.2993 57.1626 27.1602C56.9505 27.9622 56.1284 28.4404 55.3265 28.2283C54.5245 28.0162 54.0463 27.1942 54.2584 26.3923C54.6295 24.9888 55.3863 23.7174 56.443 22.7221C57.4996 21.7267 58.814 21.0472 60.237 20.7605Z" fill="#393939"/>
<path d="M61.3886 14.3357C61.3886 15.4417 60.492 16.3383 59.386 16.3383C58.2799 16.3383 57.3833 15.4417 57.3833 14.3357C57.3833 13.2296 58.2799 12.333 59.386 12.333C60.492 12.333 61.3886 13.2296 61.3886 14.3357Z" fill="#393939"/>
<path d="M24.7319 14.3357C24.7319 15.4417 23.8353 16.3383 22.7292 16.3383C21.6232 16.3383 20.7266 15.4417 20.7266 14.3357C20.7266 13.2296 21.6232 12.333 22.7292 12.333C23.8353 12.333 24.7319 13.2296 24.7319 14.3357Z" fill="#393939"/>
<path d="M37.0453 42.8093C37.0453 43.9153 36.1487 44.8119 35.0427 44.8119C33.9367 44.8119 33.04 43.9153 33.04 42.8093C33.04 41.7033 33.9367 40.8066 35.0427 40.8066C36.1487 40.8066 37.0453 41.7033 37.0453 42.8093Z" fill="#393939"/>
</svg>
