<svg width="22" height="21" viewBox="0 0 22 21" fill="none" xmlns="http://www.w3.org/2000/svg">
<path fill-rule="evenodd" clip-rule="evenodd" d="M10.215 2.00156C10.7374 1.95821 11.2628 1.95821 11.7852 2.00156C11.8347 2.0055 11.9337 2.04881 11.9736 2.19319L12.371 3.6435C12.5731 4.3785 13.1272 4.91269 13.7418 5.20406C13.9811 5.31694 14.2107 5.44425 14.4307 5.58469C15.0041 5.94956 15.7645 6.13987 16.5345 5.93906L18.0497 5.54137C18.201 5.502 18.2903 5.56237 18.3178 5.60175C18.619 6.00862 18.8816 6.44306 19.1057 6.89981C19.125 6.9405 19.136 7.04419 19.0246 7.14919L17.904 8.20706C17.3388 8.73994 17.1312 9.46312 17.1752 10.1181C17.1921 10.3724 17.1921 10.6276 17.1752 10.8819C17.1312 11.5369 17.3388 12.2601 17.904 12.7929L19.0246 13.8508C19.1346 13.9558 19.125 14.0595 19.1057 14.1002C18.8836 14.5546 18.62 14.9894 18.3178 15.3996C18.2903 15.4376 18.1996 15.4967 18.0497 15.4586L16.5331 15.0609C15.7645 14.8601 15.0041 15.0504 14.4307 15.4153C14.2107 15.5557 13.9811 15.6831 13.7432 15.7959C13.1258 16.0873 12.5731 16.6202 12.371 17.3565L11.9736 18.8068C11.9337 18.9512 11.8347 18.9945 11.7852 18.9984C11.2628 19.0417 10.7374 19.0417 10.215 18.9984C10.1655 18.9945 10.0665 18.9499 10.0266 18.8068L9.6292 17.3565C9.42708 16.6215 8.87295 16.0873 8.25833 15.7959C8.02039 15.6833 7.79029 15.5562 7.56945 15.4153C6.99608 15.0504 6.2357 14.8601 5.4657 15.0609L3.95045 15.4586C3.7992 15.498 3.70983 15.4376 3.68233 15.3982C3.38023 14.9885 3.11659 14.5541 2.89445 14.1002C2.8752 14.0595 2.8642 13.9558 2.97558 13.8508L4.0962 12.7929C4.66133 12.2601 4.86895 11.5369 4.82495 10.8819C4.80801 10.6276 4.80801 10.3724 4.82495 10.1181C4.86895 9.46312 4.66133 8.73994 4.0962 8.20706L2.97558 7.14919C2.86558 7.04419 2.8752 6.9405 2.89445 6.89981C3.11618 6.44524 3.37985 6.0104 3.68233 5.60044C3.70983 5.56237 3.80058 5.502 3.95045 5.54137L5.46708 5.93906C6.2357 6.13987 6.99608 5.94956 7.56945 5.58469C7.78945 5.44425 8.01908 5.31694 8.25695 5.20406C8.87433 4.91269 9.42708 4.37981 9.6292 3.6435L10.0266 2.19319C10.0665 2.04881 10.1655 2.0055 10.215 2.00156ZM11.0001 0C10.6756 0 10.3538 0.013125 10.0362 0.039375C9.01458 0.124687 8.26245 0.846562 8.03145 1.69444L7.6327 3.14606C7.60933 3.23269 7.52545 3.35344 7.34258 3.44006C7.02533 3.58993 6.71853 3.75916 6.42408 3.94669C6.25495 4.05431 6.1037 4.06481 6.01158 4.03987L4.49633 3.6435C3.61083 3.41119 2.58233 3.66975 1.99383 4.47037C1.62254 4.97458 1.29861 5.50909 1.02583 6.06769C0.592703 6.95362 0.873203 7.93406 1.52495 8.54962L2.64558 9.6075C2.71433 9.6705 2.78033 9.80044 2.76658 9.99337C2.74411 10.3308 2.74411 10.6692 2.76658 11.0066C2.78033 11.1996 2.71433 11.3295 2.64558 11.3925L1.52495 12.4504C0.873203 13.0659 0.592703 14.0464 1.02583 14.9323C1.30083 15.4941 1.62533 16.0282 1.99383 16.5309C2.58233 17.3302 3.61083 17.5888 4.49633 17.3578L6.01295 16.9601C6.1037 16.9352 6.25495 16.9457 6.42408 17.0533C6.71695 17.241 7.02358 17.4103 7.34258 17.5599C7.52545 17.6466 7.60933 17.7673 7.63408 17.8539L8.03145 19.3056C8.26383 20.1534 9.01458 20.8753 10.0362 20.9593C10.6776 21.0125 11.3226 21.0125 11.964 20.9593C12.9856 20.8753 13.7377 20.1534 13.9687 19.3056L14.3675 17.8539C14.3908 17.7673 14.4747 17.6466 14.6576 17.5599C14.9748 17.4101 15.2817 17.2409 15.5761 17.0533C15.7452 16.9457 15.8965 16.9352 15.9886 16.9601L17.5038 17.3565C18.3893 17.5888 19.4178 17.3302 20.0063 16.5296C20.3748 16.0282 20.7007 15.4941 20.9743 14.9323C21.4075 14.0464 21.127 13.0659 20.4738 12.4504L19.3546 11.3925C19.2858 11.3295 19.2198 11.1996 19.2336 11.0066C19.256 10.6692 19.256 10.3308 19.2336 9.99337C19.2198 9.80044 19.2872 9.6705 19.3546 9.6075L20.4738 8.54962C21.127 7.93406 21.4075 6.95362 20.9743 6.06769C20.7015 5.50869 20.3776 4.97374 20.0063 4.46906C19.4178 3.66975 18.3893 3.41119 17.5038 3.64219L15.9872 4.03987C15.8965 4.06481 15.7452 4.05431 15.5761 3.94669C15.2816 3.75915 14.9748 3.58992 14.6576 3.44006C14.4747 3.35344 14.3908 3.23269 14.3661 3.14606L13.9701 1.69312C13.7363 0.846562 12.9856 0.124687 11.964 0.0406875C11.6434 0.0138314 11.3218 0.000256196 11.0001 0V0ZM13.0626 10.5C13.0626 11.0221 12.8453 11.5229 12.4585 11.8921C12.0717 12.2613 11.5471 12.4687 11.0001 12.4687C10.4531 12.4687 9.92846 12.2613 9.54167 11.8921C9.15488 11.5229 8.93758 11.0221 8.93758 10.5C8.93758 9.97785 9.15488 9.47709 9.54167 9.10788C9.92846 8.73867 10.4531 8.53125 11.0001 8.53125C11.5471 8.53125 12.0717 8.73867 12.4585 9.10788C12.8453 9.47709 13.0626 9.97785 13.0626 10.5ZM15.1251 10.5C15.1251 11.5443 14.6905 12.5458 13.9169 13.2842C13.1433 14.0227 12.0941 14.4375 11.0001 14.4375C9.90606 14.4375 8.85685 14.0227 8.08326 13.2842C7.30968 12.5458 6.87508 11.5443 6.87508 10.5C6.87508 9.45571 7.30968 8.45419 8.08326 7.71577C8.85685 6.97734 9.90606 6.5625 11.0001 6.5625C12.0941 6.5625 13.1433 6.97734 13.9169 7.71577C14.6905 8.45419 15.1251 9.45571 15.1251 10.5Z" fill="white"/>
</svg>
