<svg width="12" height="12" viewBox="0 0 12 12" fill="none" xmlns="http://www.w3.org/2000/svg">
<circle cx="6" cy="6" r="6" fill="#5EAB42"/>
<path d="M6.4918 5.91667C6.22951 5.85833 5.96721 5.74167 5.77049 5.56667C5.57377 5.50833 5.5082 5.33333 5.5082 5.21667C5.5082 5.1 5.57377 4.925 5.70492 4.86667C5.90164 4.75 6.09836 4.63333 6.29508 4.69167C6.68852 4.69167 7.01639 4.86667 7.21311 5.1L7.80328 4.4C7.60656 4.225 7.40984 4.10833 7.21311 3.99167C7.01639 3.875 6.7541 3.81667 6.4918 3.81667V3H5.70492V3.81667C5.37705 3.875 5.04918 4.05 4.78689 4.28333C4.52459 4.575 4.32787 4.925 4.39344 5.275C4.39344 5.625 4.52459 5.975 4.78689 6.20833C5.11475 6.5 5.57377 6.675 5.96721 6.85C6.16393 6.90833 6.42623 7.025 6.62295 7.14167C6.7541 7.25833 6.81967 7.43333 6.81967 7.60833C6.81967 7.78333 6.7541 7.95833 6.62295 8.13333C6.42623 8.30833 6.16393 8.36667 5.96721 8.36667C5.70492 8.36667 5.37705 8.30833 5.18033 8.13333C4.98361 8.01667 4.78689 7.84167 4.65574 7.66667L4 8.30833C4.19672 8.54167 4.39344 8.71667 4.65574 8.89167C4.98361 9.06667 5.37705 9.24167 5.77049 9.24167V10H6.4918V9.125C6.88525 9.06667 7.21311 8.89167 7.47541 8.65833C7.80328 8.36667 8 7.9 8 7.49167C8 7.14167 7.86885 6.73333 7.54098 6.5C7.21311 6.20833 6.88525 6.03333 6.4918 5.91667Z" fill="white"/>
</svg>
