<svg width="20" height="15" viewBox="0 0 20 15" fill="none" xmlns="http://www.w3.org/2000/svg">
<path fill-rule="evenodd" clip-rule="evenodd" d="M0 3.5625C0 2.86631 0.263392 2.19863 0.732233 1.70634C1.20107 1.21406 1.83696 0.9375 2.5 0.9375H11.875C12.4814 0.937425 13.0671 1.16875 13.5231 1.58841C13.9791 2.00806 14.2743 2.58743 14.3538 3.21862L18.2413 1.40475C18.4315 1.31573 18.64 1.27805 18.8477 1.29514C19.0554 1.31223 19.2557 1.38355 19.4304 1.50261C19.6052 1.62168 19.7488 1.78471 19.8483 1.9769C19.9478 2.16909 19.9999 2.38433 20 2.60306V12.3969C19.9998 12.6155 19.9477 12.8306 19.8483 13.0226C19.7488 13.2146 19.6053 13.3775 19.4308 13.4966C19.2562 13.6156 19.0561 13.687 18.8486 13.7042C18.641 13.7214 18.4327 13.684 18.2425 13.5953L14.3538 11.7814C14.2743 12.4126 13.9791 12.9919 13.5231 13.4116C13.0671 13.8312 12.4814 14.0626 11.875 14.0625H2.5C1.83696 14.0625 1.20107 13.7859 0.732233 13.2937C0.263392 12.8014 0 12.1337 0 11.4375V3.5625ZM14.375 10.3547L18.75 12.3969V2.60306L14.375 4.64531V10.3547ZM2.5 2.25C2.16848 2.25 1.85054 2.38828 1.61612 2.63442C1.3817 2.88056 1.25 3.2144 1.25 3.5625V11.4375C1.25 11.7856 1.3817 12.1194 1.61612 12.3656C1.85054 12.6117 2.16848 12.75 2.5 12.75H11.875C12.2065 12.75 12.5245 12.6117 12.7589 12.3656C12.9933 12.1194 13.125 11.7856 13.125 11.4375V3.5625C13.125 3.2144 12.9933 2.88056 12.7589 2.63442C12.5245 2.38828 12.2065 2.25 11.875 2.25H2.5Z" fill="#444444"/>
</svg>
