<svg width="20" height="20" viewBox="0 0 20 20" fill="none" xmlns="http://www.w3.org/2000/svg">
<g clip-path="url(#clip0)">
<path d="M16.5225 10.7067C16.5225 10.3774 16.2554 10.1104 15.926 10.1104C15.5966 10.1104 15.3295 10.3774 15.3295 10.7067C15.3295 13.6242 12.9562 15.9975 10.0387 15.9975C7.12135 15.9975 4.74799 13.6242 4.74799 10.7067C4.74799 10.3774 4.48096 10.1104 4.15152 10.1104C3.82208 10.1104 3.55505 10.3774 3.55505 10.7067C3.55505 14.0808 6.1457 16.8605 9.44221 17.1627V18.7684H7.22877C6.89933 18.7684 6.6323 19.0354 6.6323 19.3648C6.6323 19.6943 6.89933 19.9613 7.22877 19.9613H12.8487C13.178 19.9613 13.4451 19.6943 13.4451 19.3648C13.4451 19.0354 13.178 18.7684 12.8487 18.7684H10.6351V17.1627C13.9318 16.8607 16.5225 14.0808 16.5225 10.7067Z" fill="#444444"/>
<path d="M10.0374 14.5255C12.1432 14.5255 13.8565 12.8122 13.8565 10.7064V3.77991C13.8565 1.6742 12.1432 -0.0390625 10.0374 -0.0390625C7.93164 -0.0390625 6.21838 1.6742 6.21838 3.77991V10.7064C6.21838 12.8122 7.93164 14.5255 10.0374 14.5255ZM7.41117 3.77991C7.41117 2.33185 8.5893 1.15387 10.0374 1.15387C11.4854 1.15387 12.6636 2.33185 12.6636 3.77991V10.7064C12.6636 12.1544 11.4854 13.3325 10.0374 13.3325C8.5893 13.3325 7.41117 12.1544 7.41117 10.7064V3.77991Z" fill="#444444"/>
</g>
<defs>
<clipPath id="clip0">
<rect width="20" height="20" fill="white"/>
</clipPath>
</defs>
</svg>
